Coordinates
version=1
nRows=17
nColumns=40
inDegrees=yes

Units are S.I. units (second, meters, Newtons, ...)
If the header above contains a line with 'inDegrees', this indicates whether rotational values are in degrees (yes) or radians (no).

endheader
time	pelvis_tilt	pelvis_list	pelvis_rotation	pelvis_tx	pelvis_ty	pelvis_tz	hip_flexion_r	hip_adduction_r	hip_rotation_r	knee_angle_r	knee_angle_r_beta	ankle_angle_r	subtalar_angle_r	mtp_angle_r	hip_flexion_l	hip_adduction_l	hip_rotation_l	knee_angle_l	knee_angle_l_beta	ankle_angle_l	subtalar_angle_l	mtp_angle_l	lumbar_extension	lumbar_bending	lumbar_rotation	arm_flex_r	arm_add_r	arm_rot_r	elbow_flex_r	pro_sup_r	wrist_flex_r	wrist_dev_r	arm_flex_l	arm_add_l	arm_rot_l	elbow_flex_l	pro_sup_l	wrist_flex_l	wrist_dev_l
      5.12500000	    -23.92257187	     -1.23115826	      0.22764013	     -0.32336083	      0.85613675	     -1.04669732	     31.05169526	     -5.44247678	     -6.91862923	     96.69247603	      1.68760207	    -35.09385330	      0.00000000	      0.00000000	     62.69441536	      1.80721974	     -4.46097237	     71.02281952	      1.23958204	     22.40384377	      0.00000000	      0.00000000	     -2.64903382	     -0.75215344	      1.14587628	     89.80059802	    -21.77390313	     28.45477958	     49.46177366	     86.36476842	      0.00000000	      0.00000000	     89.91837412	    -23.52897872	     31.38135635	     52.17624530	     85.63299585	      0.00000000	      0.00000000
      5.13000000	    -23.81658797	     -1.31129541	      0.24000117	     -0.32324155	      0.85812332	     -1.04664195	     31.04272773	     -5.40732256	     -7.01044239	     96.65492615	      1.68694670	    -35.09651130	      0.00000000	      0.00000000	     62.38290163	      1.74212591	     -4.41386426	     70.63760475	      1.23285878	     22.21210754	      0.00000000	      0.00000000	     -2.65970201	     -0.66055934	      1.10738786	     89.79557760	    -21.81816795	     28.58136646	     49.47473407	     86.35869425	      0.00000000	      0.00000000	     89.91785698	    -23.60258846	     31.48134629	     52.15955077	     85.63218595	      0.00000000	      0.00000000
      5.13500000	    -23.71756236	     -1.36887735	      0.24385914	     -0.32306781	      0.86022469	     -1.04663644	     31.03810920	     -5.39909200	     -7.08747505	     96.60330176	      1.68604568	    -35.11043406	      0.00000000	      0.00000000	     62.06659541	      1.70034990	     -4.36960475	     70.20689568	      1.22534149	     21.97632996	      0.00000000	      0.00000000	     -2.67509487	     -0.60072809	      1.14445195	     89.79519496	    -21.86765193	     28.79759616	     49.43215803	     86.36531286	      0.00000000	      0.00000000	     89.91738647	    -23.61351858	     31.60393122	     52.18858894	     85.63006882	      0.00000000	      0.00000000
      5.14000000	    -23.62356458	     -1.46861425	      0.23922028	     -0.32286352	      0.86221639	     -1.04668633	     31.04215979	     -5.35963139	     -7.20544049	     96.58588161	      1.68574164	    -35.12476738	      0.00000000	      0.00000000	     61.74666293	      1.62526716	     -4.31616656	     69.81736488	      1.21854289	     21.79847741	      0.00000000	      0.00000000	     -2.66547956	     -0.46991269	      1.10230627	     89.78720011	    -21.92928752	     28.88839214	     49.46751619	     86.34839455	      0.00000000	      0.00000000	     89.91656722	    -23.71020460	     31.71218157	     52.14091471	     85.62753550	      0.00000000	      0.00000000
      5.14500000	    -23.51183236	     -1.53891608	      0.23840606	     -0.32279062	      0.86429192	     -1.04660370	     31.02560050	     -5.33972639	     -7.29036858	     96.54899186	      1.68509780	    -35.11262665	      0.00000000	      0.00000000	     61.42895048	      1.56954724	     -4.25944252	     69.41099242	      1.21145035	     21.60754418	      0.00000000	      0.00000000	     -2.70603234	     -0.40152902	      1.16511760	     89.78818063	    -21.96784547	     29.02203961	     49.41795166	     86.34931233	      0.00000000	      0.00000000	     89.91644616	    -23.71183448	     31.79528309	     52.18601467	     85.62417180	      0.00000000	      0.00000000
      5.15000000	    -23.43936131	     -1.59816554	      0.22760391	     -0.32247700	      0.86627360	     -1.04674090	     31.01112532	     -5.30888890	     -7.31358910	     96.44879178	      1.68334898	    -35.11278806	      0.00000000	      0.00000000	     61.12175348	      1.53408565	     -4.21050242	     68.99726286	      1.20422941	     21.40177940	      0.00000000	      0.00000000	     -2.67474357	     -0.30859243	      1.12616026	     89.78026897	    -22.03539571	     29.20269884	     49.44193854	     86.33573685	      0.00000000	      0.00000000	     89.91579526	    -23.81469279	     31.95923020	     52.14311167	     85.62188239	      0.00000000	      0.00000000
      5.15500000	    -23.32130299	     -1.66830972	      0.24389784	     -0.32246735	      0.86835646	     -1.04669666	     31.01038911	     -5.29744062	     -7.43663458	     96.47349406	      1.68378011	    -35.10760581	      0.00000000	      0.00000000	     60.80865184	      1.47577501	     -4.19330037	     68.60356829	      1.19735815	     21.22495158	      0.00000000	      0.00000000	     -2.72514684	     -0.23478546	      1.11317971	     89.77710235	    -22.10194870	     29.26080553	     49.42637320	     86.32470084	      0.00000000	      0.00000000	     89.91556752	    -23.86444147	     32.01184880	     52.14429712	     85.61388707	      0.00000000	      0.00000000
      5.16000000	    -23.23613530	     -1.73268153	      0.22311531	     -0.32224122	      0.87028871	     -1.04667227	     31.00811868	     -5.26797515	     -7.46759197	     96.42954818	      1.68301311	    -35.09552733	      0.00000000	      0.00000000	     60.50637950	      1.41134926	     -4.14554411	     68.21284231	      1.19053869	     21.05553387	      0.00000000	      0.00000000	     -2.71366736	     -0.15826072	      1.15526156	     89.77315078	    -22.13673075	     29.34695226	     49.41423601	     86.31790312	      0.00000000	      0.00000000	     89.91479772	    -23.90184671	     32.09082001	     52.15230273	     85.60973839	      0.00000000	      0.00000000
      5.16500000	    -23.09900046	     -1.77393562	      0.23824063	     -0.32191642	      0.87248168	     -1.04673059	     30.91551301	     -5.25642325	     -7.51499784	     96.32101454	      1.68111884	    -35.05822568	      0.00000000	      0.00000000	     60.11663224	      1.40283871	     -4.11263812	     67.76598024	      1.18273948	     20.82619709	      0.00000000	      0.00000000	     -2.76181967	     -0.10394545	      1.13393789	     89.76944122	    -22.18224392	     29.53370139	     49.40966023	     86.31151198	      0.00000000	      0.00000000	     89.91441204	    -23.95955212	     32.26669200	     52.10730176	     85.60378457	      0.00000000	      0.00000000
      5.17000000	    -23.02243373	     -1.84858941	      0.21690057	     -0.32188591	      0.87437956	     -1.04669472	     30.94434560	     -5.23645038	     -7.59982292	     96.34378690	      1.68151630	    -35.05303513	      0.00000000	      0.00000000	     59.84657744	      1.31776515	     -4.08384185	     67.40419971	      1.17642521	     20.67107414	      0.00000000	      0.00000000	     -2.75646256	     -0.01594818	      1.15657929	     89.76498938	    -22.20960447	     29.61261300	     49.41039822	     86.30236588	      0.00000000	      0.00000000	     89.91436277	    -24.03760016	     32.33356761	     52.13718976	     85.59870255	      0.00000000	      0.00000000
      5.17500000	    -22.93205933	     -1.91494591	      0.22809085	     -0.32165813	      0.87642029	     -1.04673186	     30.90921356	     -5.19105311	     -7.63649590	     96.26563900	      1.68015236	    -35.02825517	      0.00000000	      0.00000000	     59.52506061	      1.27575392	     -4.04919488	     66.95512453	      1.16858737	     20.45893370	      0.00000000	      0.00000000	     -2.74737728	      0.06770471	      1.12882061	     89.75933532	    -22.24401621	     29.72912795	     49.40386281	     86.29107955	      0.00000000	      0.00000000	     89.91335286	    -24.10992206	     32.46894267	     52.11528246	     85.59523670	      0.00000000	      0.00000000
      5.18000000	    -22.74481681	     -1.91204135	      0.18226915	     -0.32123291	      0.87863563	     -1.04680557	     30.81550765	     -5.26500569	     -7.66389759	     96.24317821	      1.67976034	    -35.05483372	      0.00000000	      0.00000000	     59.07240716	      1.24154180	     -4.06579332	     66.51330117	      1.16087610	     20.24377848	      0.00000000	      0.00000000	     -2.83934316	      0.07594791	      1.16970232	     89.75636705	    -22.28023166	     29.87180444	     49.36934763	     86.28147838	      0.00000000	      0.00000000	     89.91230571	    -24.17455108	     32.62677168	     52.10100751	     85.59236919	      0.00000000	      0.00000000
      5.18500000	    -22.71610917	     -2.02652009	      0.21233673	     -0.32129548	      0.88042361	     -1.04671101	     30.88995377	     -5.20048433	     -7.78709889	     96.22923341	      1.67951696	    -35.05802122	      0.00000000	      0.00000000	     58.86873758	      1.14976712	     -4.02763832	     66.17638098	      1.15499574	     20.09714466	      0.00000000	      0.00000000	     -2.78223589	      0.19666052	      1.14430550	     89.75487313	    -22.31153710	     29.95529619	     49.36462625	     86.27176734	      0.00000000	      0.00000000	     89.91215495	    -24.21130692	     32.68288191	     52.10383945	     85.58500423	      0.00000000	      0.00000000
      5.19000000	    -22.65015502	     -2.09400517	      0.17480543	     -0.32113147	      0.88247001	     -1.04667141	     30.89466598	     -5.13267023	     -7.78211564	     96.14114049	      1.67797945	    -35.04909012	      0.00000000	      0.00000000	     58.57804997	      1.08355890	     -3.95703291	     65.71100621	      1.14687341	     19.85168851	      0.00000000	      0.00000000	     -2.75701488	      0.27445132	      1.17647872	     89.74410669	    -22.33445896	     30.13535226	     49.31537586	     86.26545724	      0.00000000	      0.00000000	     89.91181597	    -24.27415353	     32.83154638	     52.09093028	     85.58095252	      0.00000000	      0.00000000
      5.19500000	    -22.57657424	     -2.17809542	      0.19223241	     -0.32095147	      0.88438551	     -1.04665064	     30.88029911	     -5.09201657	     -7.85341169	     96.07956940	      1.67690483	    -35.05651102	      0.00000000	      0.00000000	     58.29333260	      1.01668434	     -3.92020342	     65.31208371	      1.13991090	     19.61969383	      0.00000000	      0.00000000	     -2.73066794	      0.35447320	      1.14652942	     89.74331973	    -22.36523236	     30.30261980	     49.30180670	     86.25415732	      0.00000000	      0.00000000	     89.91114325	    -24.32251599	     32.98523063	     52.06497588	     85.57327308	      0.00000000	      0.00000000
      5.20000000	    -22.48605995	     -2.25886747	      0.15965460	     -0.32078396	      0.88638531	     -1.04653718	     30.88744656	     -5.04196983	     -7.90990734	     96.06933064	      1.67672613	    -35.06559122	      0.00000000	      0.00000000	     57.99885277	      0.91733310	     -3.87559535	     64.94029077	      1.13342189	     19.43150844	      0.00000000	      0.00000000	     -2.74086822	      0.42607191	      1.19439685	     89.74396982	    -22.35956112	     30.43485175	     49.25561211	     86.25784881	      0.00000000	      0.00000000	     89.91093470	    -24.34277228	     33.08000388	     52.04292224	     85.56704865	      0.00000000	      0.00000000
      5.20500000	    -22.36746959	     -2.34579462	      0.15203819	     -0.32056740	      0.88844455	     -1.04656837	     30.82187056	     -4.97630064	     -7.93344044	     95.97730432	      1.67511997	    -35.04210860	      0.00000000	      0.00000000	     57.65362104	      0.83518224	     -3.84954538	     64.51410594	      1.12598356	     19.19058591	      0.00000000	      0.00000000	     -2.76092129	      0.54993465	      1.15933214	     89.73258116	    -22.41244308	     30.55646226	     49.26116049	     86.23308030	      0.00000000	      0.00000000	     89.91005264	    -24.45114185	     33.23848019	     52.00771380	     85.55755603	      0.00000000	      0.00000000
